<?xml version="1.0" encoding="utf-8"?>
<!-- Generator: Adobe Illustrator 14.0.0, SVG Export Plug-In . SVG Version: 6.00 Build 43363)  -->
<!DOCTYPE svg PUBLIC "-//W3C//DTD SVG 1.1//EN" "http://www.w3.org/Graphics/SVG/1.1/DTD/svg11.dtd">
<svg version="1.1" id="Layer_3" xmlns="http://www.w3.org/2000/svg" xmlns:xlink="http://www.w3.org/1999/xlink" x="0px" y="0px"
	 width="581.5px" height="408px" viewBox="0 0 581.5 408" enable-background="new 0 0 581.5 408" xml:space="preserve">
<path fill="#CEEBEF" d="M225.168,183.657c0,0-40.828-134.153-142.318-134.153c-25.664-1.167-61.827,13.999-62.994,50.161
	c-1.152,35.702,53.406,97.551,178.265,120.453C198.121,220.117,212.346,193.248,225.168,183.657z"/>
<path fill="#CEEBEF" d="M336.494,207.049c-0.686-1.185,2.141,0.104,2.141,0.104s106.738-90.945,192.201-36.203
	c22.241,12.861,44.511,45.138,25.987,76.218c-18.025,30.244-95.339,52.689-210.075,7.289
	C346.748,254.456,348.102,227.122,336.494,207.049z"/>
<path fill="#CEEBEF" d="M205.467,291.468c-61.71,24.292-105.208,14.192-117.605-2.895c-14.334-19.753-1.334-42.787,12.825-52.78
	c30.144-23.394,67.48-16.785,94.627-6.35C195.313,229.443,185.208,251.542,205.467,291.468"/>
<path fill="#CEEBEF" d="M310.481,314.053c14.403,25.427,39.326,54.762,77.907,55.646c17.289,1.179,41.91-8.487,43.254-32.855
	c1.141-20.663-25.142-54.975-85.719-75.25C345.924,261.593,347.065,285.74,310.481,314.053"/>
<path fill="#F8D10C" d="M259.291,293.473c-32.945-8.049-58.171-27.648-66.341-48.91c-0.036,0.919-0.073,1.839-0.073,2.774
	c0,21.245,11.33,42.086,22.428,63.445c9.633,5.673,20.808,10.262,33.052,13.252c15.606,3.815,30.863,4.518,44.422,2.607
	c18.554-12.72,36.533-25.288,45.901-42.851c0.425-0.798,0.802-1.6,1.19-2.399C322.641,295.946,291.7,301.39,259.291,293.473z"/>
<path fill="#F8D10C" d="M334.96,197.434c17.474-12.463,28.894-32.865,28.894-55.964c0-37.965-30.777-68.741-68.74-68.741
	c-37.965,0-68.74,30.775-68.74,68.741c0,12.916,3.569,24.995,9.765,35.318c-0.018,0.012-0.041,0.027-0.06,0.039
	c11.588,8.901,26.48,16.096,43.418,20.234C299.508,201.949,318.951,201.734,334.96,197.434z"/>
<path fill="#F8D10C" d="M272.958,228.781c-25.178-6.151-45.857-19.048-57.858-34.277c-5.266,5.714-10.487,12.686-14.552,20.85
	c9.124,20.281,33.635,38.669,65.279,46.398c32.79,8.012,64.06,2.338,81.164-12.611c-0.064-9.339-1.726-18.063-3.916-25.535
	C325.215,232.774,299.58,235.283,272.958,228.781z"/>
<path fill="#231F20" d="M389.938,55.743c-5.173-3.157-11.927-1.521-15.082,3.653c-0.864,1.416-1.358,2.95-1.53,4.496
	c-6.964,2.336-18.015,8.695-29.986,25.979c-12.638-11.82-29.596-19.078-48.226-19.078c-6.313,0-12.433,0.844-18.262,2.405
	c-1.358-20.588-7.979-30.649-13.061-35.467c0.422-1.166,0.664-2.417,0.664-3.729c0-6.061-4.913-10.973-10.974-10.973
	s-10.973,4.913-10.973,10.973s4.912,10.974,10.973,10.974c2.436,0,4.679-0.803,6.498-2.146c4.336,4.817,9.821,14.32,11.116,32.171
	c-27.183,9.853-46.659,35.926-46.659,66.469c0,12.165,3.129,24.1,9.068,34.643l-0.862,0.517l0.105,0.081
	c-4.327,2.945-10.824,7.903-17.503,14.85l-0.029-0.039l-1.539,1.67l-1.119,1.214l0.018,0.021
	c-4.683,5.249-8.667,10.788-11.88,16.532l-0.058-0.128l-1.823,3.66l-0.409,0.82l0.013,0.03c-4.508,9.327-7.01,19.125-7.404,29.146
	l-0.002,0.067l0,0c0,0.003,0,0.004,0,0.007L191,244.884l0.005,0.012c-0.031,0.809-0.063,1.619-0.063,2.441
	c0,20.835,10.328,40.671,21.261,61.674l1.444,2.778c12.08,23.252,21.962,44.33,20.666,66.714c-0.239,4.134-0.792,7.953-1.686,11.669
	l3.756,0.941c0.953-3.669,2.247-7.266,3.961-10.994l0.018-0.039c10.191-22.149,31.667-36.87,52.437-51.104l1.075-0.737
	c18.054-12.378,36.722-25.175,46.517-43.537c0.345-0.649,0.658-1.297,0.972-1.947l0.251-0.516l0,0v-0.003
	c4.812-9.906,7.253-20.74,7.296-32.201l0.024-0.021l-0.005-0.887l-0.031-4.225l-0.111,0.099c-0.37-6.672-1.518-13.508-3.424-20.395
	l0.022-0.011l-0.45-1.536l-0.659-2.248l-0.023,0.011c-3.239-10.237-7.292-17.88-9.148-21.114c0.23-0.162,0.46-0.327,0.69-0.491
	l0.005-0.004l0,0l0.287-0.202c18.599-13.267,29.704-34.778,29.704-57.542c0-18.479-7.137-35.315-18.787-47.921
	c10.701-14.982,20.968-21.077,27.408-23.545c0.889,1.788,2.265,3.358,4.096,4.474c5.175,3.157,11.926,1.521,15.082-3.653
	C396.747,65.651,395.111,58.899,389.938,55.743z M341.842,226.369c1.997,7.419,3.068,14.76,3.2,21.867
	c-0.267,0.224-0.536,0.444-0.811,0.665c-0.359,0.289-0.717,0.578-1.088,0.86c-0.397,0.301-0.81,0.591-1.222,0.883
	c-0.384,0.274-0.766,0.548-1.161,0.813c-0.421,0.281-0.857,0.553-1.292,0.825c-0.409,0.258-0.816,0.519-1.236,0.769
	c-0.445,0.265-0.905,0.516-1.363,0.771c-0.431,0.241-0.857,0.485-1.301,0.717c-0.468,0.246-0.951,0.48-1.429,0.717
	c-0.454,0.223-0.902,0.451-1.366,0.665c-0.491,0.228-0.996,0.444-1.499,0.661c-0.471,0.204-0.938,0.414-1.418,0.608
	c-0.515,0.21-1.043,0.407-1.567,0.607c-0.489,0.188-0.973,0.379-1.469,0.554c-0.536,0.193-1.087,0.369-1.633,0.551
	c-0.504,0.166-1.003,0.338-1.514,0.496c-0.56,0.175-1.131,0.332-1.699,0.494c-0.517,0.147-1.026,0.302-1.551,0.439
	c-0.584,0.155-1.182,0.293-1.773,0.437c-0.523,0.127-1.042,0.259-1.573,0.378c-0.604,0.135-1.222,0.252-1.835,0.375
	c-0.535,0.107-1.063,0.221-1.606,0.321c-0.637,0.115-1.284,0.211-1.928,0.315c-0.529,0.085-1.053,0.18-1.588,0.257
	c-0.677,0.098-1.363,0.174-2.046,0.258c-0.521,0.063-1.034,0.137-1.559,0.192c-0.723,0.076-1.457,0.133-2.188,0.195
	c-0.494,0.042-0.984,0.095-1.48,0.128c-0.834,0.059-1.678,0.095-2.521,0.134c-0.407,0.02-0.806,0.048-1.213,0.063
	c-1.256,0.043-2.521,0.066-3.793,0.066c-9.539,0-19.309-1.205-29.034-3.582c-1.875-0.457-3.729-0.955-5.557-1.487
	c-0.608-0.179-1.197-0.383-1.799-0.567c-1.21-0.373-2.425-0.74-3.611-1.144c-0.726-0.247-1.429-0.523-2.146-0.782
	c-1.038-0.376-2.086-0.74-3.105-1.138c-0.758-0.297-1.49-0.622-2.237-0.933c-0.95-0.394-1.91-0.775-2.841-1.19
	c-0.76-0.338-1.494-0.705-2.242-1.056c-0.887-0.416-1.783-0.823-2.651-1.258c-0.748-0.376-1.466-0.778-2.2-1.165
	c-0.833-0.442-1.677-0.874-2.491-1.331c-0.731-0.412-1.431-0.849-2.147-1.272c-0.778-0.464-1.569-0.918-2.329-1.396
	c-0.707-0.445-1.381-0.911-2.069-1.371c-0.729-0.483-1.472-0.961-2.18-1.461c-0.676-0.474-1.317-0.969-1.973-1.457
	c-0.681-0.507-1.375-1.006-2.034-1.524c-0.638-0.503-1.241-1.022-1.859-1.537c-0.635-0.527-1.283-1.05-1.896-1.59
	c-0.596-0.526-1.156-1.069-1.729-1.605c-0.588-0.551-1.189-1.095-1.754-1.654c-0.553-0.551-1.069-1.114-1.599-1.675
	c-0.539-0.568-1.088-1.132-1.603-1.71c-0.504-0.57-0.972-1.149-1.45-1.728c-0.49-0.59-0.992-1.176-1.457-1.772
	c-0.452-0.585-0.865-1.18-1.292-1.771c-0.44-0.611-0.892-1.218-1.304-1.836c-0.399-0.598-0.759-1.205-1.132-1.811
	c-0.387-0.627-0.784-1.253-1.142-1.888c-0.343-0.612-0.647-1.232-0.964-1.85c-0.265-0.516-0.533-1.031-0.778-1.551
	c3.191-6.219,7.324-12.223,12.311-17.884c0.173,0.206,0.363,0.405,0.539,0.609c0.403,0.47,0.818,0.937,1.238,1.399
	c0.448,0.497,0.903,0.991,1.367,1.48c0.432,0.454,0.871,0.902,1.316,1.35c0.484,0.484,0.976,0.967,1.475,1.443
	c0.456,0.437,0.919,0.868,1.389,1.297c0.517,0.473,1.044,0.942,1.577,1.405c0.481,0.42,0.966,0.834,1.46,1.246
	c0.549,0.46,1.11,0.911,1.676,1.362c0.504,0.4,1.01,0.799,1.525,1.193c0.583,0.441,1.174,0.878,1.772,1.312
	c0.526,0.382,1.052,0.765,1.59,1.139c0.611,0.428,1.234,0.846,1.859,1.262c0.547,0.365,1.092,0.73,1.649,1.088
	c0.64,0.408,1.292,0.808,1.946,1.205c0.567,0.348,1.132,0.694,1.71,1.033c0.665,0.389,1.342,0.766,2.018,1.144
	c0.589,0.329,1.173,0.658,1.769,0.979c0.69,0.368,1.392,0.726,2.093,1.083c0.605,0.309,1.208,0.62,1.821,0.919
	c0.715,0.351,1.445,0.685,2.171,1.021c0.62,0.287,1.233,0.579,1.861,0.856c0.744,0.33,1.502,0.643,2.257,0.96
	c0.627,0.264,1.248,0.534,1.883,0.787c0.782,0.314,1.58,0.608,2.373,0.909c0.623,0.234,1.239,0.479,1.869,0.705
	c0.839,0.302,1.69,0.583,2.539,0.868c0.6,0.202,1.194,0.415,1.8,0.609c0.946,0.303,1.906,0.58,2.864,0.864
	c0.522,0.152,1.037,0.319,1.563,0.469c1.488,0.42,2.989,0.815,4.503,1.186c1.254,0.308,2.509,0.594,3.765,0.863
	c8.786,1.879,17.586,2.83,26.213,2.83c1.898,0,3.775-0.051,5.631-0.143c0.611-0.029,1.208-0.091,1.812-0.13
	c1.237-0.081,2.474-0.16,3.689-0.282c0.715-0.071,1.411-0.174,2.116-0.258c1.086-0.134,2.173-0.259,3.239-0.424
	c0.737-0.114,1.458-0.255,2.187-0.385c1.009-0.178,2.018-0.355,3.009-0.562c0.734-0.155,1.452-0.335,2.178-0.505
	c0.951-0.226,1.901-0.452,2.833-0.705c0.721-0.195,1.426-0.411,2.134-0.625c0.902-0.271,1.802-0.547,2.683-0.844
	c0.697-0.235,1.382-0.487,2.064-0.738c0.856-0.316,1.704-0.642,2.537-0.983c0.67-0.276,1.33-0.562,1.984-0.855
	C340.99,226.729,341.429,226.562,341.842,226.369z M292.08,324.774c-0.895,0.12-1.806,0.21-2.712,0.309
	c-0.753,0.08-1.498,0.183-2.257,0.247c-1.062,0.091-2.138,0.14-3.211,0.198c-0.694,0.039-1.381,0.097-2.079,0.123
	c-1.156,0.039-2.325,0.038-3.494,0.043c-0.631,0.003-1.256,0.027-1.891,0.017c-1.247-0.014-2.504-0.075-3.761-0.132
	c-0.566-0.026-1.128-0.03-1.695-0.063c-1.322-0.078-2.653-0.202-3.981-0.328c-0.512-0.047-1.021-0.073-1.532-0.128
	c-1.393-0.146-2.79-0.341-4.185-0.535c-0.455-0.063-0.907-0.107-1.361-0.178c-1.508-0.229-3.019-0.503-4.527-0.789
	c-0.343-0.063-0.687-0.111-1.029-0.179c-1.853-0.367-3.703-0.776-5.547-1.226c-1.462-0.358-2.91-0.737-4.345-1.141
	c-0.429-0.121-0.85-0.259-1.278-0.384c-1-0.291-2.001-0.583-2.988-0.896c-0.513-0.165-1.015-0.346-1.524-0.515
	c-0.887-0.297-1.777-0.586-2.654-0.899c-0.571-0.206-1.13-0.43-1.696-0.642c-0.796-0.299-1.599-0.592-2.386-0.908
	c-0.619-0.245-1.224-0.512-1.836-0.767c-0.72-0.304-1.445-0.598-2.156-0.911c-0.646-0.286-1.278-0.591-1.916-0.886
	c-0.661-0.308-1.328-0.607-1.98-0.926c-0.659-0.32-1.303-0.661-1.954-0.994c-0.616-0.314-1.238-0.622-1.847-0.947
	c-0.663-0.355-1.313-0.729-1.969-1.098c-0.509-0.286-1.025-0.567-1.528-0.86l-1.123-2.157
	c-9.617-18.474-18.756-36.025-20.518-53.815c0.015,0.026,0.034,0.05,0.049,0.076c0.126,0.214,0.276,0.421,0.406,0.632
	c0.65,1.062,1.328,2.115,2.056,3.157c0.303,0.43,0.635,0.854,0.95,1.284c0.598,0.811,1.204,1.619,1.848,2.418
	c0.381,0.473,0.783,0.938,1.181,1.407c0.629,0.738,1.27,1.475,1.938,2.2c0.437,0.476,0.882,0.946,1.335,1.415
	c0.683,0.707,1.385,1.407,2.104,2.099c0.474,0.455,0.946,0.91,1.434,1.358c0.763,0.701,1.552,1.39,2.351,2.073
	c0.481,0.412,0.954,0.828,1.449,1.235c0.908,0.747,1.85,1.473,2.8,2.196c0.421,0.321,0.826,0.65,1.255,0.966
	c1.394,1.024,2.823,2.028,4.297,3.001c0.155,0.104,0.321,0.198,0.479,0.303c1.325,0.863,2.676,1.707,4.06,2.525
	c0.53,0.315,1.079,0.61,1.617,0.918c1.037,0.592,2.079,1.175,3.146,1.741c0.636,0.337,1.288,0.66,1.936,0.989
	c1.006,0.506,2.018,1.008,3.047,1.491c0.69,0.325,1.387,0.642,2.088,0.955c1.025,0.46,2.061,0.907,3.109,1.341
	c0.714,0.297,1.43,0.59,2.155,0.876c1.084,0.427,2.183,0.833,3.288,1.235c0.705,0.255,1.406,0.513,2.119,0.758
	c1.221,0.417,2.46,0.808,3.704,1.19c0.615,0.189,1.22,0.395,1.84,0.576c1.87,0.545,3.761,1.062,5.675,1.528
	c10.032,2.452,20.115,3.693,29.97,3.693c1.969,0,3.905-0.063,5.825-0.162c0.374-0.02,0.75-0.033,1.123-0.057
	c1.846-0.111,3.666-0.265,5.458-0.466c0.333-0.037,0.658-0.081,0.987-0.12c1.735-0.21,3.446-0.456,5.124-0.747
	c0.142-0.025,0.286-0.043,0.427-0.07c1.753-0.312,3.465-0.683,5.149-1.083c0.35-0.083,0.697-0.166,1.045-0.253
	c1.647-0.415,3.265-0.863,4.842-1.36c0.251-0.079,0.492-0.166,0.742-0.248c1.474-0.48,2.916-0.996,4.32-1.551
	c0.209-0.081,0.42-0.154,0.625-0.237c1.486-0.6,2.922-1.249,4.326-1.927c0.305-0.15,0.605-0.3,0.907-0.451
	c1.387-0.699,2.742-1.427,4.042-2.207c0.045-0.025,0.095-0.049,0.14-0.075C324.029,302.803,307.846,313.965,292.08,324.774z
	 M334.144,195.636c-16.161,4.271-35.395,4.138-54.188-0.457c-2.003-0.491-3.985-1.026-5.943-1.604
	c-0.625-0.183-1.233-0.4-1.854-0.595c-1.323-0.412-2.647-0.818-3.947-1.271c-0.724-0.252-1.425-0.539-2.142-0.804
	c-1.169-0.433-2.345-0.854-3.492-1.317c-0.77-0.311-1.512-0.657-2.27-0.982c-1.066-0.458-2.141-0.901-3.184-1.386
	c-0.783-0.364-1.539-0.761-2.309-1.14c-0.985-0.485-1.982-0.956-2.943-1.464c-0.781-0.412-1.53-0.858-2.294-1.285
	c-0.918-0.514-1.848-1.016-2.744-1.551c-0.77-0.459-1.504-0.951-2.257-1.429c-0.849-0.538-1.713-1.063-2.537-1.622
	c-0.759-0.513-1.481-1.056-2.22-1.584c-0.713-0.512-1.44-1.015-2.136-1.543c-6.133-10.298-9.375-22.095-9.375-34.13
	c0-36.837,29.967-66.805,66.804-66.805c36.836,0,66.805,29.968,66.805,66.805C361.918,162.858,351.541,183.077,334.144,195.636z"/>
</svg>
